<svg width="22" height="28" viewBox="0 0 22 28" fill="none" xmlns="http://www.w3.org/2000/svg">
<path d="M21 11.4001C21 17.8911 14.0763 24.6512 11.7513 26.739C11.5347 26.9084 11.271 27 11 27C10.729 27 10.4653 26.9084 10.2488 26.739C7.92375 24.6512 1 17.8911 1 11.4001C1 8.64184 2.05357 5.99653 3.92893 4.04613C5.8043 2.09573 8.34783 1 11 1C13.6522 1 16.1957 2.09573 18.0711 4.04613C19.9464 5.99653 21 8.64184 21 11.4001Z" stroke="#D9D9D9" stroke-width="2" stroke-linecap="round" stroke-linejoin="round"/>
<path d="M11 15.3002C13.0711 15.3002 14.75 13.5541 14.75 11.4001C14.75 9.24619 13.0711 7.50008 11 7.50008C8.92893 7.50008 7.25 9.24619 7.25 11.4001C7.25 13.5541 8.92893 15.3002 11 15.3002Z" stroke="#D9D9D9" stroke-width="2" stroke-linecap="round" stroke-linejoin="round"/>
</svg>
