<svg width="1304" height="85" viewBox="0 0 1304 85" fill="none" xmlns="http://www.w3.org/2000/svg">
<path d="M0.32 120V114.24L16.96 112.48C17.28 102.347 17.44 86.88 17.44 66.08V57.28C17.44 36.48 17.28 20.96 16.96 10.72L0.32 8.96V3.35999H46.4C60.2667 3.35999 70.88 6.50666 78.24 12.8C85.28 18.7733 88.8 27.04 88.8 37.6C88.8 48.16 85.12 56.48 77.76 62.56C69.44 69.3867 57.12 72.8 40.8 72.8H30.72C30.72 90.2933 30.88 103.52 31.2 112.48L48.32 114.24V120H0.32ZM30.72 66.4H42.24C63.8933 66.4 74.72 56.8 74.72 37.6C74.72 19.1467 64.4267 9.92 43.84 9.92H31.2C30.88 20.16 30.72 35.9467 30.72 57.28V66.4ZM150.675 122.56C136.168 122.56 123.955 117.28 114.035 106.72C103.262 95.3067 97.875 80.2667 97.875 61.6C97.875 49.44 100.435 38.56 105.555 28.96C110.248 20.1067 116.648 13.12 124.755 7.99999C132.755 3.09333 141.395 0.639992 150.675 0.639992C165.075 0.639992 177.182 5.91999 186.995 16.48C197.662 27.8933 202.995 42.9333 202.995 61.6C202.995 73.76 200.488 84.64 195.475 94.24C190.782 103.2 184.382 110.187 176.275 115.2C168.382 120.107 159.848 122.56 150.675 122.56ZM150.675 115.52C162.515 115.52 171.795 109.973 178.515 98.88C184.488 88.96 187.475 76.5333 187.475 61.6C187.475 46.6667 184.488 34.24 178.515 24.32C171.795 13.3333 162.515 7.83999 150.675 7.83999C138.728 7.83999 129.395 13.3333 122.675 24.32C116.595 34.24 113.555 46.6667 113.555 61.6C113.555 76.5333 116.595 88.96 122.675 98.88C129.395 109.973 138.728 115.52 150.675 115.52ZM215.564 120V114.24L232.204 112.48C232.524 102.24 232.684 86.8267 232.684 66.24V57.28C232.684 36.3733 232.524 20.8533 232.204 10.72L215.564 8.96V3.35999H263.084V8.96L246.444 10.72C246.124 20.96 245.964 36.7467 245.964 58.08V69.28C245.964 88.16 246.124 102.667 246.444 112.8H288.684L293.804 88.16H302.284L300.844 120H215.564ZM313.108 120V114.24L329.748 112.48C330.068 102.347 330.228 86.88 330.228 66.08V57.28C330.228 36.48 330.068 20.96 329.748 10.72L313.108 8.96V3.35999H360.628V8.96L343.988 10.72C343.668 20.8533 343.508 36.3733 343.508 57.28V66.08C343.508 86.7733 343.668 102.24 343.988 112.48L360.628 114.24V120H313.108ZM464.686 121.28L393.486 22.56L393.646 112.16L412.206 114.24V120H371.086V114.24L386.126 112.32L386.286 12.48L384.846 10.4L371.726 8.79999V3.35999H396.686L462.926 96L462.766 11.2L444.046 8.96V3.35999H485.006V8.96L470.126 11.04L469.966 121.28H464.686ZM488.343 120V114.24L502.743 112.32L539.703 2.23999H548.663L586.263 112.64L600.663 114.24V120H554.423V114.24L572.023 112.48L561.463 80.64H520.343L509.943 112.16L526.743 114.24V120H488.343ZM522.583 74.08H559.223L540.823 18.72L522.583 74.08ZM702.223 120V114.24L720.623 112.48C720.836 104.907 720.943 92.1067 720.943 74.08L689.423 10.56L675.823 8.96V3.35999H722.223V8.96L704.783 10.88L731.183 66.56L757.583 11.04L740.783 8.96V3.35999H780.463V8.96L765.103 11.2L734.543 73.92C734.543 91.9467 734.649 104.8 734.863 112.48L753.263 114.24V120H702.223ZM779.099 120V114.24L793.499 112.32L830.459 2.23999H839.419L877.019 112.64L891.419 114.24V120H845.179V114.24L862.779 112.48L852.219 80.64H811.099L800.699 112.16L817.499 114.24V120H779.099ZM813.339 74.08H849.979L831.579 18.72L813.339 74.08ZM891.859 120V114.4L960.979 10.4H907.379L902.419 33.76H893.939L895.379 3.35999H976.339V8.63999L907.699 112.8H966.419L971.539 89.28H979.859L978.579 120H891.859ZM987.32 120V114.24L1003.96 112.48C1004.28 102.347 1004.44 86.88 1004.44 66.08V57.28C1004.44 36.48 1004.28 20.96 1003.96 10.72L987.32 8.96V3.35999H1072.92L1074.04 33.44H1066.2L1061.88 10.4H1018.2C1017.88 20.4267 1017.72 36.1067 1017.72 57.44H1045.72L1048.12 40.16H1054.68V80.64H1048.12L1045.88 63.84H1017.72C1017.72 86.1333 1017.88 102.453 1018.2 112.8H1065.08L1069.24 89.76H1077.24L1076.12 120H987.32ZM1135.36 121.28L1095.04 10.56L1080.96 8.96V3.35999H1126.88V9.59999L1109.44 11.04L1140.8 101.28L1170.24 11.2L1153.6 9.59999V3.35999H1193.6V8.79999L1178.24 10.88L1141.44 121.28H1135.36ZM1191.62 120V114.24L1206.02 112.32L1242.98 2.23999H1251.94L1289.54 112.64L1303.94 114.24V120H1257.7V114.24L1275.3 112.48L1264.74 80.64H1223.62L1213.22 112.16L1230.02 114.24V120H1191.62ZM1225.86 74.08H1262.5L1244.1 18.72L1225.86 74.08Z" fill="#FFFCFC"/>
</svg>
