<svg width="24" height="24" viewBox="0 0 24 24" fill="none" xmlns="http://www.w3.org/2000/svg">
<path d="M7.63512 4.125H3.13512C3.58572 8.43161 5.61651 12.4184 8.83512 15.315C12.0789 18.2319 16.2928 19.8362 20.6551 19.815H21.8101V15.6L18.0001 14.28L16.7401 16.41L15.8551 18L14.2501 17.07C11.3764 15.402 8.92757 13.0917 7.09512 10.32L6.00011 8.595L7.83012 7.635L9.33012 6.855L7.69512 4.125M7.69512 2.25C8.01858 2.25242 8.33602 2.33782 8.61704 2.49802C8.89805 2.65823 9.13325 2.88788 9.30012 3.165L10.8751 5.895C11.0087 6.1132 11.0959 6.35661 11.1311 6.61002C11.1663 6.86343 11.1489 7.12138 11.0799 7.36775C11.011 7.61412 10.8919 7.84362 10.7302 8.04188C10.5685 8.24014 10.3676 8.4029 10.1401 8.52L8.64012 9.3C10.3147 11.8286 12.5535 13.9339 15.1801 15.45L16.5001 13.335C16.6546 13.0688 16.8722 12.8447 17.1339 12.6825C17.3955 12.5203 17.693 12.425 18.0001 12.405C18.2097 12.4039 18.4178 12.4395 18.6151 12.51L22.5001 13.83C22.8539 13.97 23.1567 14.2142 23.3684 14.5304C23.58 14.8465 23.6905 15.2196 23.6851 15.6V19.875C23.6851 20.3723 23.4876 20.8492 23.1359 21.2008C22.7843 21.5525 22.3074 21.75 21.8101 21.75H20.6851C15.8709 21.7513 11.2264 19.9717 7.64566 16.7537C4.06494 13.5358 1.80116 9.10701 1.29012 4.32C1.26508 4.05836 1.2949 3.79437 1.37765 3.5449C1.46041 3.29543 1.59429 3.06597 1.77074 2.87117C1.9472 2.67636 2.16234 2.52051 2.40243 2.41355C2.64252 2.30659 2.90228 2.25089 3.16512 2.25H7.69512Z" fill="#D6D6D6"/>
</svg>
