<svg width="23" height="20" viewBox="0 0 23 20" fill="none" xmlns="http://www.w3.org/2000/svg">
<path d="M6.63512 2.125H2.13512C2.58572 6.43161 4.61651 10.4184 7.83512 13.315C11.0789 16.2319 15.2928 17.8362 19.6551 17.815H20.8101V13.6L17.0001 12.28L15.7401 14.41L14.8551 16L13.2501 15.07C10.3764 13.402 7.92757 11.0917 6.09512 8.32L5.00011 6.595L6.83012 5.635L8.33012 4.855L6.69512 2.125M6.69512 0.25C7.01858 0.252418 7.33602 0.337817 7.61704 0.498024C7.89805 0.658231 8.13325 0.887883 8.30012 1.165L9.87512 3.895C10.0087 4.1132 10.0959 4.35661 10.1311 4.61002C10.1663 4.86343 10.1489 5.12138 10.0799 5.36775C10.011 5.61412 9.89189 5.84362 9.73018 6.04188C9.56847 6.24014 9.36759 6.4029 9.14012 6.52L7.64012 7.3C9.31467 9.82861 11.5535 11.9339 14.1801 13.45L15.5001 11.335C15.6546 11.0688 15.8722 10.8447 16.1339 10.6825C16.3955 10.5203 16.693 10.425 17.0001 10.405C17.2097 10.4039 17.4178 10.4395 17.6151 10.51L21.5001 11.83C21.8539 11.97 22.1567 12.2142 22.3684 12.5304C22.58 12.8465 22.6905 13.2196 22.6851 13.6V17.875C22.6851 18.3723 22.4876 18.8492 22.1359 19.2008C21.7843 19.5525 21.3074 19.75 20.8101 19.75H19.6851C14.8709 19.7513 10.2264 17.9717 6.64566 14.7537C3.06494 11.5358 0.801163 7.10701 0.290115 2.32C0.265081 2.05836 0.294897 1.79437 0.377653 1.5449C0.460411 1.29543 0.59429 1.06597 0.770742 0.871166C0.947195 0.676363 1.16234 0.520506 1.40243 0.41355C1.64252 0.306594 1.90228 0.250891 2.16512 0.25H6.69512Z" fill="#D6D6D6"/>
</svg>
