<svg width="26" height="26" viewBox="0 0 26 26" fill="none" xmlns="http://www.w3.org/2000/svg">
<path d="M8.27148 4.46875H3.39648C3.88463 9.13424 6.08465 13.4532 9.57148 16.5913C13.0856 19.7512 17.6506 21.4892 22.3765 21.4662H23.6277V16.9L19.5002 15.47L18.1352 17.7775L17.1765 19.5L15.4377 18.4925C12.3246 16.6855 9.67164 14.1827 7.68648 11.18L6.50023 9.31125L8.48273 8.27125L10.1077 7.42625L8.33648 4.46875M8.33648 2.4375C8.6869 2.44012 9.03079 2.53264 9.33522 2.70619C9.63966 2.87975 9.89446 3.12854 10.0752 3.42875L11.7815 6.38625C11.9262 6.62263 12.0206 6.88633 12.0588 7.16085C12.097 7.43538 12.0781 7.71483 12.0034 7.98173C11.9286 8.24864 11.7997 8.49725 11.6245 8.71203C11.4493 8.92682 11.2317 9.10315 10.9852 9.23L9.36023 10.075C11.1743 12.8143 13.5997 15.095 16.4452 16.7375L17.8752 14.4463C18.0426 14.1578 18.2784 13.9151 18.5618 13.7393C18.8452 13.5636 19.1675 13.4604 19.5002 13.4388C19.7272 13.4376 19.9527 13.4761 20.1665 13.5525L24.3752 14.9825C24.7585 15.1341 25.0865 15.3988 25.3158 15.7413C25.5451 16.0837 25.6648 16.4879 25.659 16.9V21.5312C25.659 22.07 25.445 22.5866 25.064 22.9676C24.6831 23.3485 24.1664 23.5625 23.6277 23.5625H22.409C17.1936 23.5639 12.162 21.636 8.2829 18.1499C4.40379 14.6638 1.95136 9.86593 1.39773 4.68C1.37061 4.39655 1.40291 4.11057 1.49256 3.84031C1.58221 3.57005 1.72725 3.32147 1.91841 3.11043C2.10956 2.89939 2.34263 2.73055 2.60273 2.61468C2.86283 2.49881 3.14424 2.43847 3.42898 2.4375H8.33648Z" fill="#E08269"/>
</svg>
