<svg width="24" height="24" viewBox="0 0 24 24" fill="none" xmlns="http://www.w3.org/2000/svg">
<path d="M7.63499 4.125H3.13499C3.58559 8.43161 5.61639 12.4184 8.83499 15.315C12.0788 18.2319 16.2926 19.8362 20.655 19.815H21.81V15.6L18 14.28L16.74 16.41L15.855 18L14.25 17.07C11.3763 15.402 8.92745 13.0917 7.09499 10.32L5.99999 8.595L7.82999 7.635L9.32999 6.855L7.69499 4.125M7.69499 2.25C8.01846 2.25242 8.3359 2.33782 8.61691 2.49802C8.89793 2.65823 9.13313 2.88788 9.29999 3.165L10.875 5.895C11.0086 6.1132 11.0957 6.35661 11.131 6.61002C11.1662 6.86343 11.1488 7.12138 11.0798 7.36775C11.0108 7.61412 10.8918 7.84362 10.7301 8.04188C10.5683 8.24014 10.3675 8.4029 10.14 8.52L8.63999 9.3C10.3145 11.8286 12.5533 13.9339 15.18 15.45L16.5 13.335C16.6545 13.0688 16.8721 12.8447 17.1337 12.6825C17.3953 12.5203 17.6928 12.425 18 12.405C18.2095 12.4039 18.4177 12.4395 18.615 12.51L22.5 13.83C22.8538 13.97 23.1566 14.2142 23.3682 14.5304C23.5799 14.8465 23.6904 15.2196 23.685 15.6V19.875C23.685 20.3723 23.4874 20.8492 23.1358 21.2008C22.7842 21.5525 22.3073 21.75 21.81 21.75H20.685C15.8708 21.7513 11.2263 19.9717 7.64554 16.7537C4.06482 13.5358 1.80104 9.10701 1.28999 4.32C1.26496 4.05836 1.29478 3.79437 1.37753 3.5449C1.46029 3.29543 1.59417 3.06597 1.77062 2.87117C1.94707 2.67636 2.16222 2.52051 2.40231 2.41355C2.6424 2.30659 2.90216 2.25089 3.16499 2.25H7.69499Z" fill="#E08269"/>
</svg>
